<region> region_label=01_rr1 seq_position=1 key=36 sample=bar_p_02.$EXT tune=-109
<region> region_label=02_rr1 seq_position=1 key=37 sample=bar_p_02.$EXT tune=-9
<region> region_label=03_rr1 seq_position=1 key=38 sample=bar_p_04.$EXT volume=-1 tune=-108
<region> region_label=04_rr1 seq_position=1 key=39 sample=bar_p_04.$EXT volume=-1 tune=-8
<region> region_label=05_rr1 seq_position=1 key=40 sample=bar_p_05.$EXT tune=-2
<region> region_label=06_rr1 seq_position=1 key=41 sample=bar_p_06.$EXT tune=-5
<region> region_label=07_rr1 seq_position=1 key=42 sample=bar_p_07.$EXT volume=1 tune=1
<region> region_label=08_rr1 seq_position=1 key=43 sample=bar_p_08.$EXT tune=-1
<region> region_label=09_rr1 seq_position=1 key=44 sample=bar_p_09.$EXT tune=5
<region> region_label=10_rr1 seq_position=1 key=45 sample=bar_p_10.$EXT tune=11
<region> region_label=11_rr1 seq_position=1 key=46 sample=bar_p_11.$EXT tune=6
<region> region_label=12_rr1 seq_position=1 key=47 sample=bar_p_12.$EXT tune=6
<region> region_label=13_rr1 seq_position=1 key=48 sample=bar_p_13.$EXT volume=-2 tune=8
<region> region_label=14_rr1 seq_position=1 key=49 sample=bar_p_14.$EXT volume=-2 tune=1
<region> region_label=15_rr1 seq_position=1 key=50 sample=bar_p_15.$EXT volume=-2 tune=11
<region> region_label=16_rr1 seq_position=1 key=51 sample=bar_p_16.$EXT volume=-2 tune=18
<region> region_label=17_rr1 seq_position=1 key=52 sample=bar_p_17.$EXT volume=-2 tune=16
<region> region_label=18_rr1 seq_position=1 key=53 sample=bar_p_18.$EXT volume=-2 tune=-16
<region> region_label=19_rr1 seq_position=1 key=54 sample=bar_p_19.$EXT tune=-12
<region> region_label=20_rr1 seq_position=1 key=55 sample=bar_p_20.$EXT tune=-18
<region> region_label=21_rr1 seq_position=1 key=56 sample=bar_p_21.$EXT tune=-12
<region> region_label=22_rr1 seq_position=1 key=57 sample=bar_p_22.$EXT volume=-1 tune=-3
<region> region_label=23_rr1 seq_position=1 key=58 sample=bar_p_23.$EXT tune=-12
<region> region_label=24_rr1 seq_position=1 key=59 sample=bar_p_24.$EXT tune=-8
<region> region_label=25_rr1 seq_position=1 key=60 sample=bar_p_25.$EXT tune=-14
<region> region_label=26_rr1 seq_position=1 key=61 sample=bar_p_26.$EXT tune=-19
<region> region_label=27_rr1 seq_position=1 key=62 sample=bar_p_27.$EXT tune=-16
<region> region_label=28_rr1 seq_position=1 key=63 sample=bar_p_28.$EXT tune=-27
<region> region_label=29_rr1 seq_position=1 key=64 sample=bar_p_29.$EXT tune=-35
<region> region_label=30_rr1 seq_position=1 key=65 sample=bar_p_30.$EXT volume=-1.5 tune=-31
<region> region_label=31_rr1 seq_position=1 key=66 sample=bar_p_31.$EXT volume=1.5 tune=-29
<region> region_label=32_rr1 seq_position=1 key=67 sample=bar_p_32.$EXT volume=-2 tune=-37
<region> region_label=33_rr1 seq_position=1 key=68 sample=bar_p_33.$EXT volume=-4.5 tune=-24
<region> region_label=34_rr1 seq_position=1 key=69 sample=bar_p_34.$EXT tune=-40